
<svg xmlns="http://www.w3.org/2000/svg" version="1.1" xmlns:xlink="http://www.w3.org/1999/xlink" preserveAspectRatio="none" x="0px" y="0px" viewBox="0 0 500 500">
<defs>
<linearGradient id="Gradient_1" gradientUnits="userSpaceOnUse" x1="92.9625" y1="-45.8375" x2="-89.26250000000002" y2="-49.9625" spreadMethod="pad">
<stop  offset="0%" stop-color="#2D3436"/>

<stop  offset="100%" stop-color="#505D60"/>
</linearGradient>

<linearGradient id="Gradient_2" gradientUnits="userSpaceOnUse" x1="92.9625" y1="-45.8375" x2="-89.26250000000002" y2="-49.9625" spreadMethod="pad">
<stop  offset="0%" stop-color="#2D3436"/>

<stop  offset="100%" stop-color="#384143"/>
</linearGradient>

<linearGradient id="Gradient_3" gradientUnits="userSpaceOnUse" x1="92.9625" y1="-45.8375" x2="-89.26250000000002" y2="-49.9625" spreadMethod="pad">
<stop  offset="0%" stop-color="#2D3436"/>

<stop  offset="100%" stop-color="#536063"/>
</linearGradient>

<linearGradient id="Gradient_4" gradientUnits="userSpaceOnUse" x1="92.9625" y1="-45.8375" x2="-89.26250000000002" y2="-49.9625" spreadMethod="pad">
<stop  offset="0%" stop-color="#2D3436"/>

<stop  offset="100%" stop-color="#535F61"/>
</linearGradient>

<g id="hair_0_Layer0_0_FILL">
<path fill="#B2BEC3" stroke="none" d="
M -17 0
Q -24.5 0 -32.45 2.2 -42.5 4.95 -44 9.5 -48.2 8.65 -51.65 7.1 -53.95 6 -57 6 -67.9 6 -70.4 6.35 -74.15 6.85 -75.6 9.15 -76.15 10.05 -78.75 17.15 -81.6 25 -86 33 -87.35 35.6 -88.05 52.4 -88.5 64.05 -88.5 77 -88.5 81.2 -89.5 94 -90 100.4 -90.5 106.75 -90.5 108.65 -89.55 109.85
L -87.5 111.75
Q -84.5 114.55 -84.5 121.25 -84.5 129.95 -89.75 142.3 -95 154.65 -95 162.5 -95 167.7 -93.45 169.1 -92.4 170.1 -89.3 169.7 -85.2 169.25 -83.1 169.7 -79 170.55 -75.5 174.5 -72.2 178.2 -63.25 179.85 -54.45 181.5 -52 184.5 -48.6 188.7 -42.4 191.65
L -29 197
Q -27 197.8 -21.5 198.2 -16.35 198.55 -14.5 199.5 -10.7 201.5 -8.7 202.2 -5.25 203.5 -2 203.5 -0.8 203.5 2.75 202.25 6.3 201 7.75 201 7.8736328125 201 8 201 8.1263671875 201 8.25 201 9.7 201 13.25 202.25 16.8 203.5 18 203.5 21.25 203.5 24.7 202.2 26.7 201.5 30.5 199.5 32.35 198.55 37.5 198.2 43 197.8 45 197
L 58.4 191.65
Q 64.6 188.7 68 184.5 70.45 181.5 79.25 179.85 88.2 178.2 91.5 174.5 95 170.55 99.1 169.7 101.2 169.25 105.3 169.7 108.4 170.1 109.45 169.1 111 167.7 111 162.5 111 154.65 105.75 142.3 100.5 129.95 100.5 121.25 100.5 114.55 103.5 111.75
L 105.55 109.85
Q 106.5 108.65 106.5 106.75 106 100.4 105.5 94 104.5 81.2 104.5 77 104.5 64.05 104.05 52.4 103.35 35.6 102 33 97.6 25 94.75 17.15 92.15 10.05 91.6 9.15 90.15 6.85 86.4 6.35 83.9 6 73 6 69.95 6 67.65 7.1 64.2 8.65 60 9.5 58.5 4.95 48.45 2.2 40.5 0 33 0 23.55 0 19.1 3.5 17.3 4.9 14.35 8.3 9.75 13.65 8 15.5 6.25 13.65 1.65 8.3 -1.3 4.9 -3.1 3.5 -7.55 0 -17 0 Z"/>
</g>

<g id="face_0_Layer1_0_FILL">
<path fill="#FFEAA7" stroke="none" d="
M 146.35 25.1
Q 121.25 0 85.75 0 50.25 0 25.1 25.1 0 50.25 0 85.75 0 118.2615234375 21.05 142.05 22.987109375 144.237109375 25.1 146.35 25.55 146.8 26 147.25 26.15 171.6 43.5 189 51.69296875 197.19296875 61.45 201.55 72.5873046875 206.5 85.75 206.5 98.9126953125 206.5 110 201.55 119.80703125 197.19296875 128 189 145.35 171.6 145.5 147.2 145.95 146.8 146.35 146.35 148.4671875 144.237109375 150.4 142.05 171.5 118.2615234375 171.5 85.75 171.5 50.25 146.35 25.1 Z"/>
</g>

<g id="mustache_bar_0_Layer0_0_FILL">
<path fill="#B2BEC3" stroke="none" d="
M 107.05 48.7
Q 110.1 29.8 107.9 19.35 104.55 3.3 89.2 0.85 76.8 -1.15 69.7 1.55 60.55 5.05 58.7 16.5 57.55 23.6 57.95 26.05 58.65 30.85 63.65 31.65 67.6 32.3 68.25 32.25 69.85 32 72.1 29.85
L 71.35 29.75
Q 70.55 29.65 69.1 29.05 67.65 28.4 66.9 28.25
L 67.65 23.7
Q 68.1 20 71.75 18.45 74.8 17.15 78.65 17.75 84.65 18.75 87.75 23.95 90.85 29.1 89.7 36.2 87.9 47.15 84 51.95 79.15 58.15 69.65 56.65 60.85 55.2 47 45.65 33.15 36 24.4 34.55 13.6 32.8 7.5 33.85 3.35 34.5 0 36.7 0.95 36.4 1.55 36.45 2.6 36.5 8.75 37.5 19.65 39.25 28 44.25 33.55 47.45 40.8 54.3 48.65 61.7 52.4 64.15 59.55 69 68.25 70.4 81.3 72.5 92.4 67.3 105 61.4 107.05 48.7 Z"/>
</g>

<g id="beard_bottom_0_Layer0_0_FILL">
<path fill="#B2BEC3" stroke="none" d="
M 106.25 11
Q 98.3 0 83 0 75.65 0 69.15 1.15 61.7 2.45 56 5 51.55 2.45 44.1 1.15 37.6 0 30.25 0 14.95 0 7 11 0 20.7 0 36.75 0 46.05 5.15 57.7 8.05 64.2 14 75 16.65 80.25 21.3 94.05 25.55 106.65 28.5 111.5 28.45 110.25 30.5 107.5 35.25 112.25 38.1 116.5 41.5 121.6 43 127 44.2 131.3 51.25 135.4 54.95 137.55 56.65 139.9 58.3 137.55 62 135.4 69.05 131.3 70.25 127 71.75 121.6 75.15 116.5 78 112.25 82.75 107.5 84.8 110.25 84.75 111.5 87.7 106.65 91.95 94.05 96.6 80.25 99.25 75 105.2 64.2 108.1 57.7 113.25 46.05 113.25 36.75 113.25 20.7 106.25 11 Z"/>
</g>

<g id="hat_0_Layer0_0_FILL">
<path fill="url(#Gradient_1)" stroke="none" d="
M 20.85 -103.95
L 11.75 -68.15 -36.75 -62.5 4.5 -36.45 -5.05 11.45 32.55 -19.85 73.65 3.25 20.85 -103.95 Z"/>

<path fill="url(#Gradient_2)" stroke="none" d="
M 20.85 -103.95
L 0 -146.3 -0.1 -146.5 -75.3 6.2 -91.25 38.55
Q -0.1 62.175 91.05 38.55
L 75.1 6.15 73.65 3.25 32.55 -19.85 -5.05 11.45 4.5 -36.45 -36.75 -62.5 11.75 -68.15 20.85 -103.95
M -8.65 32.6
L -7.5 41.05 -13.7 35.15 -21.4 38.85 -17.75 31.1 -23.65 24.9 -15.2 26.05 -11.1 18.45 -9.45 26.9 -1.1 28.45 -8.65 32.6
M -48.4 -2.5
L -60.65 -9.15 -46.95 -11.75 -44.45 -25.35 -37.8 -13.1 -24.05 -14.95 -33.65 -4.95 -27.6 7.6 -40.25 1.65 -50.2 11.25 -48.4 -2.5 Z"/>

<path fill="url(#Gradient_3)" stroke="none" d="
M -60.65 -9.15
L -48.4 -2.5 -50.2 11.25 -40.25 1.65 -27.6 7.6 -33.65 -4.95 -24.05 -14.95 -37.8 -13.1 -44.45 -25.35 -46.95 -11.75 -60.65 -9.15 Z"/>

<path fill="url(#Gradient_4)" stroke="none" d="
M -7.5 41.05
L -8.65 32.6 -1.1 28.45 -9.45 26.9 -11.1 18.45 -15.2 26.05 -23.65 24.9 -17.75 31.1 -21.4 38.85 -13.7 35.15 -7.5 41.05 Z"/>

<path fill="#2D3436" stroke="none" d="
M 97.75 66.55
Q 138.25 55.15 138.25 39 138.25 22.85 97.75 11.4 87.0095703125 8.3767578125 75.1 6.15
L 91.05 38.55
Q -0.1 62.175 -91.25 38.55
L -75.3 6.2
Q -87.108984375 8.4046875 -97.75 11.4 -138.25 22.85 -138.25 39 -138.25 55.15 -97.75 66.55 -57.25 78 0 78 57.25 78 97.75 66.55 Z"/>
</g>

<g id="dm_screen_0_Layer0_0_FILL">
<path fill="#FF7675" stroke="none" d="
M 106.7 -6
L 106.65 -6 119 0 181.05 -20.75 169.9 -23.05 106.7 -6
M -169.9 -23.05
L -181 -20.75 -118.95 0 -106.65 -6 -169.9 -23.05
M -118.95 144.5
L -118.95 0 -181 -20.75 -181 97.05 -118.95 144.5
M 119 0
L 119 144.5 181.05 97.05 181.05 -20.75 119 0 Z"/>

<path fill="#D63031" stroke="none" d="
M 119 0
L 106.65 -6 -106.65 -6 -118.95 0 119 0
M 119 144.5
L 119 0 -118.95 0 -118.95 144.5 119 144.5 Z"/>
</g>

<g id="star_0_Layer0_0_FILL">
<path fill="#74B9FF" stroke="none" d="
M 66.2 38.9
L 80.4 7.85 49.85 23.1 24.7 0 29.75 33.8 0 50.55 33.65 56.2 40.45 89.65 56.2 59.35 90.15 63.25 66.2 38.9 Z"/>
</g>

<path id="hair_0_Layer0_0_1_STROKES" stroke="#000000" stroke-width="1" stroke-linejoin="round" stroke-linecap="round" fill="none" d="
M 14.35 8.3
Q 9.75 13.65 8 15.5 6.25 13.65 1.65 8.3 -1.3 4.9 -3.1 3.5 -7.55 0 -17 0 -24.5 0 -32.45 2.2 -42.5 4.95 -44 9.5 -48.2 8.65 -51.65 7.1 -53.95 6 -57 6 -67.9 6 -70.4 6.35 -74.15 6.85 -75.6 9.15 -76.15 10.05 -78.75 17.15 -81.6 25 -86 33 -87.35 35.6 -88.05 52.4 -88.5 64.05 -88.5 77 -88.5 81.2 -89.5 94 -90 100.4 -90.5 106.75 -90.5 108.65 -89.55 109.85
L -87.5 111.75
Q -84.5 114.55 -84.5 121.25 -84.5 129.95 -89.75 142.3 -95 154.65 -95 162.5 -95 167.7 -93.45 169.1 -92.4 170.1 -89.3 169.7 -85.2 169.25 -83.1 169.7 -79 170.55 -75.5 174.5 -72.2 178.2 -63.25 179.85 -54.45 181.5 -52 184.5 -48.6 188.7 -42.4 191.65
L -29 197
Q -27 197.8 -21.5 198.2 -16.35 198.55 -14.5 199.5 -10.7 201.5 -8.7 202.2 -5.25 203.5 -2 203.5 -0.8 203.5 2.75 202.25 6.3 201 7.75 201 7.8736328125 201 8 201 8.1263671875 201 8.25 201 9.7 201 13.25 202.25 16.8 203.5 18 203.5 21.25 203.5 24.7 202.2 26.7 201.5 30.5 199.5 32.35 198.55 37.5 198.2 43 197.8 45 197
L 58.4 191.65
Q 64.6 188.7 68 184.5 70.45 181.5 79.25 179.85 88.2 178.2 91.5 174.5 95 170.55 99.1 169.7 101.2 169.25 105.3 169.7 108.4 170.1 109.45 169.1 111 167.7 111 162.5 111 154.65 105.75 142.3 100.5 129.95 100.5 121.25 100.5 114.55 103.5 111.75
L 105.55 109.85
Q 106.5 108.65 106.5 106.75 106 100.4 105.5 94 104.5 81.2 104.5 77 104.5 64.05 104.05 52.4 103.35 35.6 102 33 97.6 25 94.75 17.15 92.15 10.05 91.6 9.15 90.15 6.85 86.4 6.35 83.9 6 73 6 69.95 6 67.65 7.1 64.2 8.65 60 9.5 58.5 4.95 48.45 2.2 40.5 0 33 0 23.55 0 19.1 3.5 17.3 4.9 14.35 8.3 Z"/>

<path id="face_0_Layer1_0_1_STROKES" stroke="#000000" stroke-width="1" stroke-linejoin="round" stroke-linecap="round" fill="none" d="
M 171.5 85.75
Q 171.5 118.2615234375 150.4 142.05 148.4671875 144.237109375 146.35 146.35 145.95 146.8 145.5 147.2 145.35 171.6 128 189 119.80703125 197.19296875 110.025 201.55 98.9126953125 206.5 85.75 206.5 72.5873046875 206.5 61.475 201.55 51.69296875 197.19296875 43.5 189 26.15 171.6 26 147.25 25.55 146.8 25.1 146.35 22.987109375 144.237109375 21.05 142.05 0 118.2615234375 0 85.75 0 50.25 25.1 25.1 50.25 0 85.75 0 121.25 0 146.35 25.1 171.5 50.25 171.5 85.75 Z"/>

<path id="mustache_bar_0_Layer0_0_1_STROKES" stroke="#000000" stroke-width="1" stroke-linejoin="round" stroke-linecap="round" fill="none" d="
M 7.5 33.85
Q 13.6 32.8 24.4 34.55 33.15 36 47 45.65 60.85 55.2 69.65 56.65 79.15 58.15 84 51.95 87.9 47.15 89.7 36.2 90.85 29.1 87.75 23.95 84.65 18.75 78.65 17.75 74.8 17.15 71.75 18.45 68.1 20 67.65 23.7
L 66.9 28.25
Q 67.65 28.4 69.1 29.05 70.55 29.65 71.35 29.75
L 72.1 29.85
Q 69.85 32 68.25 32.25 67.6 32.3 63.65 31.65 58.65 30.85 57.95 26.05 57.55 23.6 58.7 16.5 60.55 5.05 69.7 1.55 76.8 -1.15 89.2 0.85 104.55 3.3 107.9 19.35 110.1 29.8 107.05 48.7 105 61.4 92.4 67.3 81.3 72.5 68.25 70.4 59.55 69 52.4 64.15 48.65 61.7 40.8 54.3 33.55 47.45 28 44.25 19.65 39.25 8.75 37.5 2.6 36.5 1.55 36.45 0.95 36.4 0 36.7 3.35 34.5 7.5 33.85 Z"/>

<path id="beard_bottom_0_Layer0_0_1_STROKES" stroke="#000000" stroke-width="1" stroke-linejoin="round" stroke-linecap="round" fill="none" d="
M 56 5
Q 61.7 2.45 69.15 1.15 75.65 0 83 0 98.3 0 106.25 11 113.25 20.7 113.25 36.75 113.25 46.05 108.1 57.7 105.2 64.2 99.25 75 96.6 80.25 91.95 94.05 87.7 106.65 84.75 111.5 84.8 110.25 82.75 107.5 78 112.25 75.15 116.5 71.75 121.6 70.25 127 69.05 131.3 62 135.4 58.3 137.55 56.65 139.9 54.95 137.55 51.25 135.4 44.2 131.3 43 127 41.5 121.6 38.1 116.5 35.25 112.25 30.5 107.5 28.45 110.25 28.5 111.5 25.55 106.65 21.3 94.05 16.65 80.25 14 75 8.05 64.2 5.15 57.7 0 46.05 0 36.75 0 20.7 7 11 14.95 0 30.25 0 37.6 0 44.1 1.15 51.55 2.45 56 5 Z"/>

<path id="hat_0_Layer0_0_1_STROKES" stroke="#000000" stroke-width="1" stroke-linejoin="round" stroke-linecap="round" fill="none" d="
M 20.85 -103.95
L 0 -146.275 -0.1 -146.475 -75.3 6.2 -91.25 38.55
M 91.05 38.55
L 75.1 6.15 73.675 3.275 20.85 -103.95
M -0.1 -146.475
L 0 -146.675 0 -146.275
M 75.1 6.15
Q 87.0095703125 8.3767578125 97.75 11.4 138.25 22.85 138.25 39 138.25 55.15 97.75 66.55 57.25 78 0 78 -57.25 78 -97.75 66.55 -138.25 55.15 -138.25 39 -138.25 22.85 -97.75 11.4 -87.108984375 8.4046875 -75.3 6.2"/>

<path id="dm_screen_0_Layer0_0_1_STROKES" stroke="#000000" stroke-width="1" stroke-linejoin="round" stroke-linecap="round" fill="none" d="
M 106.675 -6
L 106.7 -6 169.925 -23.025 181.05 -20.75 181.05 97.05 119 144.5 -118.95 144.5 -181 97.05 -181 -20.75 -169.875 -23.025 -106.625 -6 106.675 -6 119 0 181.05 -20.75
M 119 0
L 119 144.5
M -118.95 144.5
L -118.95 0 -181 -20.75
M -106.625 -6
L -118.95 0 119 0"/>

<path id="star_0_Layer0_0_1_STROKES" stroke="#000000" stroke-width="1" stroke-linejoin="round" stroke-linecap="round" fill="none" d="
M 90.15 63.25
L 56.2 59.35 40.45 89.65 33.65 56.2 0 50.55 29.75 33.8 24.7 0 49.85 23.1 80.4 7.85 66.2 38.9 90.15 63.25 Z"/>
</defs>

<g transform="matrix( 1, 0, 0, 1, 243,216.4) ">
<g transform="matrix( 1, 0, 0, 1, 0,0) " style="animation: bob 1s ease-in-out alternate infinite">
<use xlink:href="#hair_0_Layer0_0_FILL"/>

<use xlink:href="#hair_0_Layer0_0_1_STROKES"/>
</g>
</g>

<g transform="matrix( 1, 0, 0, 1, 164.25,157.05) ">
<g transform="matrix( 1, 0, 0, 1, 0,0) " style="animation: bob 1s ease-in-out alternate infinite">
<use xlink:href="#face_0_Layer1_0_FILL"/>

<use xlink:href="#face_0_Layer1_0_1_STROKES"/>
</g>

<g transform="matrix( 1, 0, 0, 1, -24.05,107.75) ">
<g transform="matrix( 1, 0, 0, 1, 108.8,0) ">
<g transform="matrix( 1, 0, 0, 1, 0,0) " style="animation: bob 1s ease-in-out alternate infinite">
<use xlink:href="#mustache_bar_0_Layer0_0_FILL"/>

<use xlink:href="#mustache_bar_0_Layer0_0_1_STROKES"/>
</g>
</g>

<g transform="matrix( -1, 0, 0, 1, 108.8,0) ">
<g transform="matrix( 1, 0, 0, 1, 0,0) " style="animation: bob 1s ease-in-out alternate infinite">
<use xlink:href="#mustache_bar_0_Layer0_0_FILL"/>

<use xlink:href="#mustache_bar_0_Layer0_0_1_STROKES"/>
</g>
</g>

<g transform="matrix( 1, 0, 0, 1, 50.8,27.25) ">
<g transform="matrix( 1, 0, 0, 1, 0,0) " style="animation: bob 1s ease-in-out alternate infinite">
<use xlink:href="#beard_bottom_0_Layer0_0_FILL"/>

<use xlink:href="#beard_bottom_0_Layer0_0_1_STROKES"/>
</g>
</g>
</g>
</g>

<g transform="matrix( 1, 0, 0, 1, 251.25,189.55) ">
<g transform="matrix( 1, 0, 0, 1, 0,0) " style="animation: 1s bob 0.2s ease-in-out alternate infinite">
<use xlink:href="#hat_0_Layer0_0_FILL"/>

<use xlink:href="#hat_0_Layer0_0_1_STROKES"/>
</g>
</g>

<g transform="matrix( 1, 0, 0, 1, 250,313.45) ">
<g transform="matrix( 1, 0, 0, 1, 0,0) ">
<use xlink:href="#dm_screen_0_Layer0_0_FILL"/>

<use xlink:href="#dm_screen_0_Layer0_0_1_STROKES"/>
</g>
</g>

<g transform="matrix( 1, 0, 0, 1, 355.9,21.35) ">
<g transform="matrix( 1, 0, 0, 1, 0,0) " style="animation: spin 30s linear infinite; transform-origin: 45px 45px;">
<use xlink:href="#star_0_Layer0_0_FILL"/>

<use xlink:href="#star_0_Layer0_0_1_STROKES"/>
</g>
</g>

<g transform="matrix( 0.3125152587890625, 0.3125, -0.3125, 0.3125152587890625, 95.05,59.6) ">
<g transform="matrix( 1, 0, 0, 1, 0,0) " style="animation: spin 25s reverse linear infinite; transform-origin: 45px 45px;">
<use xlink:href="#star_0_Layer0_0_FILL"/>

<use xlink:href="#star_0_Layer0_0_1_STROKES"/>
</g>
</g>

<g transform="matrix( 0.441925048828125, 0, 0, 0.441925048828125, 364.05,159.3) ">
<g transform="matrix( 1, 0, 0, 1, 0,0) " style="animation: spin 15s linear infinite; transform-origin: 45px 45px;">
<use xlink:href="#star_0_Layer0_0_FILL"/>

<use xlink:href="#star_0_Layer0_0_1_STROKES"/>
</g>
</g>
</svg>
